<?xml version="1.0" standalone="no"?>
<!DOCTYPE svg PUBLIC "-//W3C//DTD SVG 20010904//EN"
 "http://www.w3.org/TR/2001/REC-SVG-20010904/DTD/svg10.dtd">
<svg version="1.0" xmlns="http://www.w3.org/2000/svg"
 width="1280.000000pt" height="819.000000pt" viewBox="0 0 1280.000000 819.000000"
 preserveAspectRatio="xMidYMid meet">
<metadata>
Created by potrace 1.16, written by Peter Selinger 2001-2019
</metadata>
<g transform="translate(0.000000,819.000000) scale(0.100000,-0.100000)"
fill="#ffffff" stroke="none">
<path d="M6602 8075 c-29 -8 -85 -33 -126 -55 -86 -47 -86 -48 -86 -201 0 -54
-4 -101 -10 -104 -5 -3 -10 -37 -10 -76 l0 -69 -118 0 -118 0 -20 -52 c-10
-29 -20 -56 -22 -60 -2 -4 6 -8 17 -8 18 0 21 -6 21 -40 0 -32 -4 -40 -18 -40
-10 0 -61 18 -112 40 -51 22 -98 40 -104 40 -6 0 -66 -55 -134 -123 l-122
-122 0 -210 -1 -210 -105 -80 c-58 -44 -110 -86 -116 -93 -7 -8 -20 -226 -34
-580 l-23 -567 -36 -115 c-20 -63 -41 -119 -46 -124 -5 -6 -9 171 -9 442 l0
452 -45 0 c-45 0 -45 0 -45 -35 0 -35 0 -35 -45 -35 l-45 0 0 135 0 135 -50
25 -50 25 0 60 c0 57 1 60 25 60 l25 0 0 129 c0 128 0 129 -24 135 -13 3 -42
27 -63 53 -22 27 -72 87 -112 136 l-72 88 -105 -136 c-107 -137 -126 -155
-163 -155 -19 0 -21 -6 -21 -58 0 -33 3 -93 6 -135 7 -72 8 -77 30 -77 l24 0
0 -210 0 -210 -50 0 -50 0 0 35 c0 34 -1 35 -40 35 -39 0 -40 -1 -40 -35 l0
-35 -50 0 -50 0 0 35 c0 34 -1 35 -40 35 l-40 0 0 -125 0 -125 -125 0 -125 0
0 -30 c0 -27 3 -30 33 -30 28 0 45 -14 138 -110 96 -101 105 -114 101 -143 -2
-18 -15 -102 -28 -188 -36 -235 -31 -299 21 -299 19 0 25 -5 25 -22 0 -13 3
-32 6 -43 4 -18 -10 -27 -115 -74 -127 -56 -168 -60 -107 -9 23 19 36 38 36
54 0 13 -2 24 -4 24 -3 0 -35 -18 -72 -39 -38 -22 -70 -38 -72 -36 -2 2 17 29
42 60 25 31 46 61 46 66 0 13 -51 23 -59 12 -27 -41 -65 -83 -74 -83 -6 0 -1
10 10 23 30 32 43 62 43 95 0 32 46 97 114 161 l36 35 -22 23 c-12 13 -29 23
-38 23 -23 0 -98 -81 -209 -228 -52 -68 -127 -159 -167 -201 l-73 -77 23 -28
22 -28 83 90 c76 84 114 113 128 98 4 -3 -2 -15 -12 -26 -14 -16 -16 -23 -7
-32 10 -10 17 -10 33 0 30 19 36 6 10 -22 -19 -20 -20 -25 -7 -35 12 -10 22
-8 52 13 35 23 54 26 54 7 0 -5 -18 -20 -40 -35 -34 -22 -39 -30 -31 -45 9
-15 4 -21 -28 -36 -22 -9 -41 -26 -44 -36 -7 -26 -49 -25 -73 2 -17 19 -19 19
-31 3 -7 -10 -13 -25 -13 -35 0 -25 -36 -30 -56 -8 -25 27 -41 23 -49 -11 -4
-17 -15 -35 -25 -40 -26 -14 -30 -13 -30 10 0 20 -46 58 -56 47 -4 -3 -9 -26
-11 -52 -3 -25 -9 -45 -13 -45 -3 0 -17 11 -30 25 -13 14 -27 25 -31 25 -10 0
-29 -57 -21 -65 4 -3 0 -10 -8 -15 -10 -6 -22 0 -41 23 -32 37 -50 29 -54 -25
-3 -41 -24 -47 -64 -19 -16 12 -31 21 -34 21 -3 0 -8 -18 -12 -40 -11 -68 -36
-53 -69 43 -16 45 -31 88 -34 95 -3 8 10 12 46 12 47 0 50 1 56 30 5 28 8 30
28 19 27 -14 118 -16 143 -2 15 9 10 16 -46 53 -35 24 -59 45 -54 46 6 2 36 8
68 14 31 6 55 15 52 19 -2 5 -36 17 -75 27 -38 10 -70 21 -70 26 0 4 6 8 13 8
7 0 22 7 33 15 18 14 17 16 -31 57 l-49 43 89 5 90 5 -74 29 -75 29 50 22 c27
12 55 29 62 37 11 13 6 16 -39 22 -67 9 -211 55 -205 65 3 4 47 23 98 41 l93
34 -94 13 c-51 8 -107 19 -123 26 l-31 13 87 32 c47 18 86 35 86 37 0 3 -26
12 -57 20 -74 21 -131 43 -155 59 -16 12 -9 16 67 36 46 12 83 26 80 30 -2 4
-63 34 -135 66 l-131 59 66 16 c79 20 87 26 49 35 -35 8 -138 59 -177 86 -35
25 -26 36 36 40 l48 3 -172 142 c-95 78 -174 141 -176 139 -2 -1 -23 -68 -46
-147 -24 -79 -47 -155 -51 -168 -8 -23 -7 -23 38 -17 46 7 46 7 46 -22 0 -31
-33 -139 -56 -183 -7 -15 -26 -41 -41 -59 l-27 -33 25 8 c13 4 39 16 58 26 18
11 35 18 37 16 2 -2 -16 -50 -41 -107 -25 -57 -43 -105 -41 -108 3 -2 34 12
70 31 46 24 66 30 66 21 0 -19 -65 -89 -106 -115 -19 -11 -32 -25 -28 -30 3
-5 31 -9 62 -9 l56 0 -59 -60 c-33 -33 -54 -60 -48 -60 6 0 42 13 79 29 38 16
70 28 71 27 1 -1 -2 -19 -8 -39 -6 -22 -24 -48 -47 -67 l-37 -30 38 0 c20 0
37 -3 37 -7 0 -3 -11 -21 -25 -39 -14 -18 -25 -36 -25 -41 0 -5 18 -7 41 -5
22 3 45 0 51 -6 11 -11 -19 -76 -60 -130 -28 -37 -18 -41 32 -11 35 21 36 21
36 1 0 -10 -14 -36 -30 -57 -17 -21 -28 -40 -26 -42 2 -2 29 12 61 32 31 20
59 34 62 32 9 -9 -7 -46 -34 -77 l-25 -30 24 0 c21 -1 20 -4 -17 -36 l-40 -35
60 4 c33 3 69 6 80 8 17 3 20 -1 17 -29 -3 -42 6 -39 51 16 l35 42 19 -24 c10
-13 23 -32 29 -42 11 -18 14 -16 46 21 l35 39 32 -101 c17 -56 31 -106 31
-111 0 -18 -31 -22 -60 -7 -39 20 -40 20 -40 -18 0 -26 -6 -37 -25 -47 -22
-12 -30 -11 -63 5 -20 11 -40 21 -44 23 -5 2 -8 -19 -8 -46 0 -42 -4 -52 -25
-66 -23 -15 -27 -15 -72 14 l-48 31 -9 -37 c-5 -23 -5 -44 2 -60 18 -38 -12
-47 -56 -18 -50 34 -55 31 -50 -26 4 -34 2 -50 -6 -48 -12 4 -75 125 -76 144
0 15 48 34 123 49 l62 12 -34 13 -33 13 28 23 29 23 -62 1 c-35 0 -63 4 -63 8
0 4 21 19 48 32 l47 24 -52 6 c-51 5 -85 20 -47 20 10 0 37 5 59 12 l40 11
-50 12 c-78 17 -82 23 -38 52 60 40 62 46 17 38 -29 -4 -53 -1 -80 10 l-39 17
55 28 c58 30 57 34 -20 45 -94 13 -165 64 -92 66 72 2 68 13 -21 70 -48 30
-87 57 -87 60 0 4 19 9 42 13 52 8 41 18 -47 41 -64 17 -67 19 -42 28 35 11
34 22 -3 37 -54 23 -105 66 -139 119 -19 29 -35 50 -36 49 -4 -4 -45 -286 -45
-310 0 -17 2 -18 15 -8 13 11 15 8 14 -16 0 -16 -4 -51 -9 -79 -4 -27 -6 -51
-5 -53 2 -2 15 4 30 14 l26 17 -22 -54 c-38 -95 -38 -92 16 -69 l47 20 -6 -27
c-4 -16 -21 -58 -39 -95 l-33 -67 25 6 c15 3 36 10 49 14 l22 9 -25 -50 c-34
-67 -32 -74 15 -50 l40 20 -36 -65 c-38 -69 -36 -73 24 -56 17 5 32 8 32 7 0
-2 -9 -29 -20 -61 -11 -32 -18 -61 -15 -63 3 -3 21 2 40 11 l35 17 0 -30 c0
-45 17 -45 47 1 26 39 27 40 35 18 13 -34 14 -34 57 1 l41 32 9 -24 c5 -13 21
-49 35 -82 14 -32 26 -60 26 -63 0 -2 -13 3 -30 12 -16 8 -31 15 -33 15 -3 0
-7 -18 -11 -39 -3 -22 -11 -41 -17 -43 -5 -2 -7 -11 -3 -21 4 -11 13 -16 24
-12 12 4 23 -3 35 -21 17 -26 17 -28 1 -40 -15 -10 -15 -15 -4 -33 10 -16 20
-20 39 -16 21 5 30 -1 57 -39 l32 -44 -42 -37 c-48 -41 -196 -116 -274 -138
l-51 -15 4 47 c10 123 19 266 17 269 -1 2 -384 -6 -850 -17 -467 -12 -895 -21
-951 -21 l-103 0 0 -1895 0 -1895 28 0 c15 0 85 7 157 15 1296 144 2673 245
4005 295 1208 44 2712 44 3915 0 1273 -47 2544 -138 3795 -271 157 -16 311
-33 343 -36 l57 -6 0 1907 0 1907 -47 -6 c-27 -3 -329 -26 -673 -51 -344 -25
-733 -53 -865 -63 -222 -17 -241 -18 -253 -2 -7 9 -38 57 -67 107 -66 111 -97
139 -172 154 -68 15 -103 29 -103 44 0 51 24 196 40 248 35 114 106 188 180
188 50 0 58 -9 60 -70 4 -91 2 -100 -26 -110 -16 -6 -32 -26 -46 -56 -25 -58
-18 -120 18 -164 21 -25 33 -30 69 -30 61 0 95 40 95 112 0 55 -22 111 -52
132 -15 11 -20 30 -25 99 l-6 85 44 41 44 41 3 -36 3 -35 34 25 33 26 7 -31
c6 -28 10 -31 36 -25 32 6 34 4 19 -25 -7 -11 -7 -19 -1 -19 16 0 92 63 124
102 42 52 49 128 17 192 -59 122 -252 215 -388 185 -114 -24 -164 -92 -170
-231 -3 -48 -2 -95 2 -104 6 -15 9 -15 30 5 l24 23 7 -31 c8 -37 18 -39 32 -9
10 22 10 22 27 -11 l18 -33 24 23 24 22 0 -31 c0 -38 0 -38 -121 -16 l-89 17
-9 36 c-28 107 -43 223 -48 371 l-6 165 31 11 30 11 5 -44 c2 -24 8 -47 11
-51 4 -3 23 10 42 31 20 20 39 35 44 32 5 -3 12 -21 16 -40 3 -20 10 -38 16
-41 16 -10 57 25 78 66 11 22 24 40 29 40 5 0 14 -14 21 -30 18 -44 41 -34 65
27 11 29 23 53 28 53 4 0 7 -18 7 -40 0 -48 15 -52 47 -12 l22 27 1 -37 c0
-66 9 -73 41 -36 l28 33 1 -27 c0 -21 5 -28 20 -28 19 0 38 44 41 95 1 12 6 6
13 -17 6 -20 14 -39 18 -43 9 -9 87 91 109 140 24 51 25 150 2 207 -27 71 -75
139 -200 284 -224 261 -336 344 -497 367 -162 23 -276 -20 -545 -205 -126 -87
-172 -124 -198 -162 -49 -72 -67 -142 -60 -249 4 -79 9 -98 47 -173 23 -47 47
-83 53 -81 6 2 16 18 21 35 10 34 17 38 47 22 18 -10 19 -7 19 42 l0 52 35
-34 c31 -30 35 -32 41 -14 4 10 13 34 21 53 l14 35 26 -40 c40 -60 41 -60 59
-14 15 36 19 40 25 24 4 -10 8 -38 8 -61 1 -24 4 -43 7 -43 4 0 22 14 42 31
l36 32 12 -49 c7 -27 20 -70 30 -96 10 -26 15 -51 10 -55 -4 -4 -30 5 -58 20
-28 16 -52 26 -54 24 -8 -8 55 -55 116 -88 112 -60 104 -38 119 -332 13 -268
11 -287 -27 -287 -8 0 -33 18 -54 41 -22 23 -41 39 -44 36 -13 -12 12 -58 52
-98 24 -24 44 -47 44 -52 0 -17 -173 -327 -183 -327 -5 0 -33 7 -63 16 l-53
15 45 85 c26 47 44 87 42 90 -3 2 -40 -25 -84 -60 -63 -51 -82 -62 -96 -55
-10 5 -18 18 -18 29 0 14 -6 18 -27 17 -25 -2 -28 1 -25 26 3 25 1 27 -23 21
-19 -5 -30 -1 -39 12 -12 16 -10 23 15 53 16 19 27 36 25 38 -2 2 -28 -7 -58
-20 l-54 -24 -37 26 c-20 15 -39 38 -42 54 -4 15 -9 27 -13 27 -3 0 -21 -16
-39 -36 -18 -21 -36 -34 -40 -31 -3 4 22 74 56 157 34 84 61 155 59 160 -2 5
-35 -37 -75 -93 -40 -56 -95 -124 -123 -152 l-52 -50 17 40 c23 53 29 75 21
75 -4 0 -30 -15 -59 -33 -29 -18 -58 -37 -66 -41 -11 -7 -12 9 -6 98 4 58 5
106 2 106 -2 0 -28 -30 -56 -66 -31 -40 -52 -61 -55 -53 -3 8 -30 140 -61 294
-32 154 -58 281 -60 283 -2 2 -70 11 -152 21 l-148 17 -6 55 c-3 30 -11 64
-17 76 -7 12 -12 61 -12 110 0 48 -7 128 -15 177 -8 49 -12 92 -10 96 2 4 58
21 124 40 149 41 149 41 128 73 -41 62 -145 107 -247 107 -59 0 -168 -24 -223
-48 -57 -25 -114 -76 -138 -123 -36 -72 -38 -71 134 -63 l153 7 13 -39 c7 -21
15 -97 18 -167 5 -118 4 -130 -15 -150 -25 -28 -36 -63 -22 -72 5 -3 10 -14
10 -24 0 -27 -92 -37 -177 -20 l-64 13 3 35 c2 29 8 37 26 39 30 4 49 -12 57
-49 7 -32 20 -38 29 -13 9 24 7 63 -5 105 -11 36 -13 38 -70 44 l-59 7 0 70
c0 64 -3 72 -29 99 -22 22 -39 29 -68 29 -22 0 -44 -5 -51 -12 -8 -8 -12 -51
-12 -128 0 -114 -1 -117 -31 -158 l-31 -42 -98 0 -97 0 -5 -207 c-5 -197 -6
-211 -32 -270 -21 -51 -26 -78 -26 -148 l0 -86 -27 3 -28 3 -3 408 -2 407 30
0 c16 0 30 1 30 3 0 1 -13 38 -30 80 -29 76 -30 83 -30 253 l0 174 -54 0 -54
0 -28 83 c-15 45 -29 88 -32 95 -3 8 18 0 45 -17 90 -55 258 -131 338 -151 88
-23 138 -25 184 -9 27 9 31 16 31 45 0 49 -23 99 -74 158 -23 28 -48 61 -54
73 -15 27 -15 129 -2 248 18 156 17 153 57 170 l37 16 -59 59 c-62 63 -78 67
-117 32 -20 -17 -115 -13 -261 13 -90 15 -85 12 -207 155 -44 51 -48 54 -95
54 -48 1 -51 0 -69 -38 -41 -84 -28 -301 27 -467 l23 -69 -33 -32 c-41 -39
-73 -104 -73 -145 0 -21 13 -47 40 -81 21 -28 44 -53 50 -57 6 -4 10 -47 10
-106 l0 -99 -52 0 c-47 0 -61 6 -160 70 -60 39 -113 70 -118 70 -5 0 -23 -38
-41 -85 l-32 -85 -42 0 -43 0 -7 -92 c-7 -89 -11 -99 -76 -230 -38 -76 -69
-140 -69 -143 0 -3 18 -5 40 -5 l40 0 0 -122 c0 -68 -3 -174 -7 -236 -6 -106
-7 -111 -24 -96 -25 23 -56 100 -71 179 -16 90 -16 332 0 460 18 140 28 723
13 799 -12 67 -46 120 -188 298 l-93 118 0 167 c0 138 4 181 20 237 11 38 19
71 17 71 -1 1 -26 10 -54 19 l-53 18 0 95 c0 75 3 98 15 107 14 10 12 20 -15
85 -23 56 -30 89 -30 137 0 50 -3 64 -15 64 -9 0 -15 9 -15 24 0 48 140 141
248 165 55 12 63 -3 32 -63 -13 -24 -21 -50 -18 -58 19 -48 342 -34 518 24 86
27 113 42 161 85 59 53 53 61 -38 50 -43 -5 -159 -10 -258 -11 -219 -1 -225 1
-225 79 0 81 -18 95 -117 94 -43 0 -102 -7 -131 -14z m-3022 -3671 c0 -13 8
-15 35 -12 36 4 47 -10 23 -29 -21 -16 -457 -163 -461 -155 -3 4 -8 22 -12 41
-5 23 -4 31 4 27 6 -4 11 -14 11 -23 0 -11 6 -14 23 -9 12 4 34 9 50 12 15 4
27 10 27 14 0 4 20 13 45 19 42 11 45 13 40 39 -5 25 -5 25 4 5 12 -26 13 -27
64 -12 30 8 37 14 32 28 -4 12 0 18 12 18 73 -1 83 3 83 28 0 14 5 25 10 25 6
0 10 -7 10 -16z m-550 -271 c0 -12 -55 -50 -174 -120 -96 -57 -179 -103 -184
-103 -12 0 -67 79 -59 86 3 3 8 -4 12 -15 8 -27 19 -26 61 5 27 21 32 30 23
40 -7 9 -8 14 -1 14 5 0 12 -7 16 -15 9 -23 89 31 81 55 -4 13 5 21 40 35 44
16 47 16 65 0 18 -16 21 -16 52 9 38 30 68 34 68 9z m-1170 -481 c0 -5 -13
-157 -30 -338 -16 -181 -30 -335 -30 -341 0 -10 -59 -13 -263 -13 l-264 0 -6
-197 c-4 -108 -7 -229 -7 -270 l0 -73 235 0 234 0 -5 -262 c-2 -145 -7 -295
-10 -334 l-6 -72 -224 -7 -224 -7 -2 -597 -3 -596 -335 -62 c-184 -34 -343
-62 -352 -62 -17 -1 -18 83 -18 1619 l0 1620 655 0 c360 0 655 -4 655 -8z
m10340 -431 l0 -388 -212 -7 c-117 -4 -230 -9 -250 -12 -35 -5 -37 -8 -42 -47
-3 -23 -8 -120 -11 -214 l-6 -173 84 0 c46 0 145 -3 220 -7 l137 -6 0 -297 0
-297 -61 -7 c-34 -3 -129 -6 -210 -6 l-149 0 0 -157 c0 -87 -3 -209 -7 -270
l-6 -113 250 0 250 0 6 -188 c4 -103 7 -265 7 -359 l0 -173 -32 0 c-53 0
-1163 81 -1167 85 -5 6 -15 2925 -10 2926 27 4 1118 97 1157 98 l52 1 0 -389z
m-3760 257 c0 -7 7 -613 15 -1347 8 -734 13 -1336 11 -1338 -9 -10 -538 -55
-545 -47 -5 5 -114 251 -242 546 -128 296 -234 536 -236 534 -2 -1 3 -194 12
-427 8 -233 15 -457 15 -496 l0 -73 -313 0 -314 0 -6 767 c-4 421 -7 989 -7
1262 l0 496 273 58 c149 32 277 58 282 57 6 0 118 -258 250 -573 159 -381 241
-565 243 -548 2 14 -13 265 -33 556 -19 292 -35 543 -35 558 l0 27 315 0 c245
0 315 -3 315 -12z m-5540 -38 c137 -34 222 -81 321 -180 51 -50 103 -114 127
-155 87 -149 147 -349 178 -590 23 -185 23 -591 0 -786 -67 -556 -298 -915
-640 -994 -128 -30 -304 -20 -454 27 -271 83 -452 303 -542 662 -96 379 -89
1014 15 1376 68 240 182 426 328 536 75 56 139 87 238 114 99 27 303 22 429
-10z m1646 5 c203 -27 311 -76 430 -193 206 -203 319 -540 285 -845 -23 -207
-77 -341 -193 -475 -105 -124 -108 -93 56 -582 74 -223 146 -448 160 -500 22
-87 23 -96 8 -102 -30 -12 -673 -61 -682 -52 -4 5 -63 204 -131 443 -144 506
-130 501 -148 46 -6 -159 -14 -316 -17 -347 l-6 -58 -334 0 -334 0 0 1340 0
1339 118 4 c230 8 674 -2 788 -18z m1479 -55 c379 -27 697 -50 707 -50 17 0
18 -20 18 -339 l0 -338 -61 -7 c-34 -3 -119 -6 -189 -6 l-127 0 -6 -257 c-4
-141 -7 -557 -7 -925 l0 -668 -350 0 -350 0 0 985 0 985 -185 0 -185 0 0 335
0 335 23 0 c13 0 333 -22 712 -50z m3305 -1345 l0 -1325 -348 0 -349 0 -6 407
c-4 223 -7 820 -7 1325 l0 918 355 0 355 0 0 -1325z m1573 1233 c2 -24 4 -176
3 -338 l-1 -295 -197 -3 -198 -2 -2 -1008 -3 -1007 -130 -3 c-71 -2 -230 0
-352 3 l-223 7 0 964 0 964 -187 2 -188 3 -3 338 c-1 185 1 337 5 338 45 4
1346 77 1399 78 l72 1 5 -42z"/>
<path d="M2654 2874 c-27 -40 -51 -143 -71 -292 -22 -173 -25 -762 -5 -942 23
-196 59 -334 93 -356 30 -18 70 89 93 251 61 441 31 1156 -55 1328 -23 44 -33
46 -55 11z"/>
<path d="M4327 2843 c-4 -3 -7 -168 -7 -365 0 -403 -5 -380 75 -333 49 28 95
95 122 175 25 77 26 283 0 356 -20 57 -75 127 -116 148 -38 20 -67 27 -74 19z"/>
</g>
</svg>
